<svg xmlns="http://www.w3.org/2000/svg" viewBox="0 0 144 144"><defs><style>.cls-1{fill:#fff;}</style></defs><g id="Layer_2" data-name="Layer 2"><g id="Layer_1-2" data-name="Layer 1"><path class="cls-1" d="M3.93,98.12l42,41.95,64.81-64.82,5.24-47.18L89.36,31a25.85,25.85,0,0,0,1.55,7h0a11.4,11.4,0,1,1-3.32,18.42,11.38,11.38,0,0,1,0-16.13c.17-.17.35-.32.53-.48h0a29.39,29.39,0,0,1-2-8.42h0L68.75,33.31ZM69.84,69.28l-.17,13.5,11,7.79a1.63,1.63,0,0,1-.46,2.89l-12.89,4-4,12.89a1.6,1.6,0,0,1-1.3,1.12,1.06,1.06,0,0,1-.25,0,1.63,1.63,0,0,1-1.33-.68l-7.8-11-13.5.18a1.59,1.59,0,0,1-1.47-.89,1.64,1.64,0,0,1,.15-1.72L45.9,86.54,41.57,73.76a1.63,1.63,0,0,1,2.06-2.07L56.42,76,67.24,68A1.61,1.61,0,0,1,69,67.81,1.63,1.63,0,0,1,69.84,69.28Z"/><path d="M89.36,31h0l26.57-2.95-5.24,47.18L45.88,140.07,3.93,98.12,68.75,33.31l17.37-1.93c0-.54-.07-1.08-.09-1.63s0-1.09,0-1.64l-18.22,2a1.61,1.61,0,0,0-1,.46L.48,97a1.63,1.63,0,0,0,0,2.31l44.24,44.24a1.63,1.63,0,0,0,2.31,0L113.4,77.15a1.61,1.61,0,0,0,.46-1l5.53-49.77a1.61,1.61,0,0,0-1.8-1.8L89.3,27.75c0,.55,0,1.09,0,1.64S89.32,30.48,89.36,31Z"/><path class="cls-1" d="M67.09,85a1.62,1.62,0,0,1-.69-1.35l.14-11.06-8.86,6.61a1.64,1.64,0,0,1-1.5.24L45.71,75.84l3.55,10.47a1.61,1.61,0,0,1-.23,1.5l-6.62,8.86,11.06-.14h0a1.63,1.63,0,0,1,1.33.68l6.38,9,3.28-10.56a1.63,1.63,0,0,1,1.08-1.07l10.55-3.28Z"/><path d="M67.24,68,56.42,76,43.63,71.69a1.63,1.63,0,0,0-2.06,2.07L45.9,86.54,37.83,97.36a1.64,1.64,0,0,0-.15,1.72,1.59,1.59,0,0,0,1.47.89l13.5-.18,7.8,11a1.63,1.63,0,0,0,1.33.68,1.06,1.06,0,0,0,.25,0,1.6,1.6,0,0,0,1.3-1.12l4-12.89,12.89-4a1.63,1.63,0,0,0,.46-2.89l-11-7.79.17-13.5A1.63,1.63,0,0,0,69,67.81,1.61,1.61,0,0,0,67.24,68ZM64.48,95.68,61.2,106.24l-6.38-9a1.63,1.63,0,0,0-1.33-.68h0l-11.06.14L49,87.81a1.61,1.61,0,0,0,.23-1.5L45.71,75.84l10.47,3.55a1.64,1.64,0,0,0,1.5-.24l8.86-6.61L66.4,83.6A1.62,1.62,0,0,0,67.09,85l9,6.38L65.56,94.61A1.63,1.63,0,0,0,64.48,95.68Z"/><path class="cls-1" d="M89.89,54.11a8.15,8.15,0,0,0,11.52,0,7.66,7.66,0,0,0,.9-1.09,7.14,7.14,0,0,1-.9,1.09l-.33.3A28.54,28.54,0,0,1,89.59,42.92h0a8.12,8.12,0,0,0,.3,11.19Z"/><path class="cls-1" d="M102.35,53a7.26,7.26,0,0,0,.69-1.21A7.26,7.26,0,0,1,102.35,53Z"/><path class="cls-1" d="M101.41,42.59A8.15,8.15,0,0,0,92.24,41,25.14,25.14,0,0,0,103,51.76,8.14,8.14,0,0,0,101.41,42.59Z"/><path d="M84.24,48.35a11.41,11.41,0,0,0,19.48,8.06A11.4,11.4,0,0,0,90.91,38c.19.51.38,1,.6,1.51s.48,1,.73,1.46h0A8.14,8.14,0,0,1,103,51.76h0a7.26,7.26,0,0,1-.69,1.21.1.1,0,0,1,0,.05,7.66,7.66,0,0,1-.9,1.09A8.14,8.14,0,0,1,89.59,42.92c-.28-.5-.55-1-.79-1.54s-.46-1.05-.68-1.58c-.18.16-.36.31-.53.48A11.33,11.33,0,0,0,84.24,48.35Z"/><path d="M135.52,8.48A29,29,0,0,0,86,28.11h0c0,.55,0,1.1,0,1.64s0,1.09.09,1.63h0a29.39,29.39,0,0,0,2,8.42h0c.22.53.43,1.06.68,1.58s.51,1,.79,1.54h0a28.54,28.54,0,0,0,11.49,11.49l.33-.3a7.14,7.14,0,0,0,.9-1.09.1.1,0,0,0,0-.05,7.26,7.26,0,0,0,.69-1.21h0A25.14,25.14,0,0,1,92.24,41h0c-.25-.48-.51-1-.73-1.46s-.41-1-.6-1.51h0a25.85,25.85,0,0,1-1.55-7h0c0-.54-.07-1.08-.08-1.63s0-1.09,0-1.64h0a25.77,25.77,0,1,1,30.14,26.57l-.37,3.36a29,29,0,0,0,16.45-49.2Z"/></g></g></svg>