<svg xmlns="http://www.w3.org/2000/svg" viewBox="0 0 129.6 129.6"><defs><style>.cls-1{fill:none;}</style></defs><g id="Layer_2" data-name="Layer 2"><g id="Layer_1-2" data-name="Layer 1"><circle class="cls-1" cx="30.6" cy="30.6" r="23.4" transform="translate(-4.51 5.3) rotate(-9.22)"/><circle class="cls-1" cx="99" cy="30.6" r="23.4" transform="translate(32.84 110.35) rotate(-67.5)"/><path d="M99,0H30.6A30.6,30.6,0,0,0,0,30.6H0A30.6,30.6,0,0,0,30.6,61.2H99a30.6,30.6,0,0,0,30.6-30.6h0A30.6,30.6,0,0,0,99,0ZM30.6,54A23.4,23.4,0,1,1,54,30.6,23.4,23.4,0,0,1,30.6,54ZM99,54a23.4,23.4,0,1,1,23.4-23.4A23.4,23.4,0,0,1,99,54Z"/><path d="M114.94,68.4H14.66A14.66,14.66,0,0,0,0,83.06v31.88A14.66,14.66,0,0,0,14.66,129.6H114.94a14.66,14.66,0,0,0,14.66-14.66V83.06A14.66,14.66,0,0,0,114.94,68.4ZM54,108.2a14.2,14.2,0,0,1-14.2,14.2H21.4A14.2,14.2,0,0,1,7.2,108.2V89.8A14.2,14.2,0,0,1,21.4,75.6H39.8A14.2,14.2,0,0,1,54,89.8Z"/></g></g></svg>